<svg width="14" height="14" viewBox="0 0 14 14" fill="none" xmlns="http://www.w3.org/2000/svg">
<path d="M5.90057 14C5.72082 13.9981 5.54412 13.9509 5.38521 13.8622C5.2087 13.7643 5.06096 13.6173 4.958 13.4371C4.85504 13.2569 4.80079 13.0504 4.80113 12.84V7.18488L0.279704 1.94303C0.138437 1.77547 0.0459093 1.56852 0.0131884 1.34693C-0.0195325 1.12534 0.00893837 0.898494 0.0951959 0.693529C0.181453 0.488563 0.321845 0.314154 0.49958 0.191162C0.677314 0.0681708 0.884865 0.00180384 1.09741 0H12.9026C13.1151 0.00180384 13.3227 0.0681708 13.5004 0.191162C13.6782 0.314154 13.8185 0.488563 13.9048 0.693529C13.9911 0.898494 14.0195 1.12534 13.9868 1.34693C13.9541 1.56852 13.8616 1.77547 13.7203 1.94303L9.19887 7.18488V11.2885C9.19952 11.4792 9.15529 11.6672 9.07014 11.8355C8.98499 12.0038 8.86159 12.1471 8.71099 12.2527L6.51213 13.8042C6.33114 13.9319 6.11829 14.0001 5.90057 14ZM1.09741 1.16002L5.61196 6.40186C5.79694 6.61603 5.89981 6.89513 5.90057 7.18488V12.84L8.09943 11.2885V7.18488C8.10019 6.89513 8.20306 6.61603 8.38804 6.40186L12.9026 1.16002H1.09741Z" fill="#1E1E1E"/>
</svg>
