<svg width="150" height="100" viewBox="0 0 150 100" fill="none" xmlns="http://www.w3.org/2000/svg">
<path fill-rule="evenodd" clip-rule="evenodd" d="M24.7313 2.92042C25.0979 1.30752 26.7062 0.280422 28.3237 0.626341L147.071 26.0224C148.689 26.3683 149.703 27.9563 149.336 29.5692L142.017 61.7752C141.988 61.7686 141.959 61.7622 141.929 61.756C137.812 60.8755 133.739 63.3994 132.831 67.3935C131.923 71.3875 134.525 75.3391 138.642 76.2196C138.671 76.2259 138.701 76.2319 138.73 76.2378L133.993 97.0796C133.626 98.6925 132.018 99.7196 130.401 99.3737L11.6532 73.9776C10.0357 73.6317 9.02167 72.0437 9.38824 70.4308L14.1263 49.583C18.1315 50.2682 22.0178 47.7728 22.9017 43.8834C23.7857 39.9939 21.3414 36.1446 17.4105 35.1326L24.7313 2.92042Z" fill="#BEBEBE"/>
<line x1="1" y1="-1" x2="103.552" y2="-1" transform="matrix(0.977886 0.209137 -0.221618 0.975134 27.4834 44.8633)" stroke="#F9F9F9" stroke-width="2" stroke-linecap="round" stroke-dasharray="6 6"/>
<rect width="42.4742" height="4.23785" transform="matrix(0.977886 0.209137 -0.221618 0.975134 34.9971 11.8037)" fill="#E8E8E8"/>
<rect width="42.4742" height="4.23784" transform="matrix(0.977886 0.209137 -0.221618 0.975134 32.8838 21.1016)" fill="#E8E8E8"/>
<rect width="22.8707" height="4.23784" transform="matrix(0.977886 0.209137 -0.221618 0.975134 30.7705 30.3994)" fill="#E8E8E8"/>
<path fill-rule="evenodd" clip-rule="evenodd" d="M0 15.6902C0 14.0362 1.34086 12.6953 2.99489 12.6953H124.602C126.256 12.6953 127.597 14.0362 127.597 15.6902V48.6653C127.567 48.665 127.537 48.6648 127.508 48.6648C123.291 48.6648 119.874 51.9803 119.874 56.0703C119.874 60.1602 123.291 63.4758 127.508 63.4758C127.537 63.4758 127.567 63.4756 127.597 63.4753V84.8132C127.597 86.4672 126.256 87.8081 124.602 87.8081H2.99488C1.34085 87.8081 0 86.4672 0 84.8132V63.469C4.06336 63.3017 7.30466 60.0532 7.30466 56.0703C7.30466 52.0874 4.06336 48.8389 0 48.6716V15.6902Z" fill="#D9D9D9"/>
<line x1="12.9961" y1="55.0703" x2="115.691" y2="55.0703" stroke="#F9F9F9" stroke-width="2" stroke-linecap="round" stroke-dasharray="6 6"/>
<rect x="11.9961" y="22.2168" width="42.5324" height="4.2317" fill="#C2C2C2"/>
<rect x="11.9961" y="31.7378" width="42.5324" height="4.2317" fill="#C2C2C2"/>
<rect x="11.9961" y="41.2593" width="22.902" height="4.2317" fill="#C2C2C2"/>
</svg>
