<svg width="20" height="22" viewBox="0 0 20 22" fill="none" xmlns="http://www.w3.org/2000/svg">
<path d="M1.37501 20.5006H18.625C18.6248 19.1266 18.6212 17.5517 18.5594 16.1759C18.5267 15.4477 18.4783 14.7935 18.4088 14.2652C18.3346 13.7023 18.2492 13.3947 18.1941 13.2823C17.8161 12.5112 17.2165 11.8915 16.4878 11.5055L1.37501 20.5006ZM1.37501 20.5006C1.37522 19.1266 1.37879 17.5517 1.4406 16.1759C1.47333 15.4477 1.52166 14.7935 1.59125 14.2652C1.66536 13.7025 1.75072 13.3949 1.80579 13.2824L1.37501 20.5006ZM15.3546 11.1302C14.8422 11.0697 14.1191 11.0679 12.7194 11.0679H6.36389C4.92733 11.0679 4.49534 11.0732 4.26021 11.1188C4.20283 11.1299 4.17188 11.1403 4.08916 11.1843C4.04248 11.2092 3.9932 11.2374 3.91892 11.2799C3.90405 11.2884 3.88819 11.2974 3.87114 11.3072C3.77475 11.3623 3.65695 11.4289 3.51234 11.5054L15.3546 11.1302ZM15.3546 11.1302C15.791 11.1817 16.0468 11.2721 16.4877 11.5054L15.3546 11.1302ZM1.80586 13.2823C2.18392 12.5112 2.78349 11.8915 3.5122 11.5055L1.80586 13.2823Z" stroke="#787878" stroke-width="2" stroke-linecap="round" stroke-linejoin="round"/>
<path d="M13.1255 4.60865C13.1255 6.32177 11.7301 7.7173 10.0005 7.7173C8.27085 7.7173 6.87549 6.32177 6.87549 4.60865C6.87549 2.89553 8.27085 1.5 10.0005 1.5C11.7301 1.5 13.1255 2.89553 13.1255 4.60865Z" stroke="#787878" stroke-width="2"/>
</svg>
