<svg width="170" height="110" viewBox="0 0 170 110" fill="none" xmlns="http://www.w3.org/2000/svg">
<circle cx="162.5" cy="7.5" r="7.5" fill="#ECECEC"/>
<circle cx="27.5" cy="82.5" r="27.5" fill="#EFEFEF"/>
<path fill-rule="evenodd" clip-rule="evenodd" d="M37.7313 7.92042C38.0979 6.30752 39.7062 5.28042 41.3237 5.62634L160.071 31.0224C161.689 31.3683 162.703 32.9563 162.336 34.5692L155.017 66.7752C154.988 66.7686 154.959 66.7622 154.929 66.756C150.812 65.8755 146.739 68.3994 145.831 72.3935C144.923 76.3875 147.525 80.3391 151.642 81.2196C151.671 81.2259 151.701 81.2319 151.73 81.2378L146.993 102.08C146.626 103.692 145.018 104.72 143.401 104.374L24.6532 78.9776C23.0357 78.6317 22.0217 77.0437 22.3882 75.4308L27.1263 54.583C31.1315 55.2682 35.0178 52.7728 35.9017 48.8834C36.7857 44.9939 34.3414 41.1446 30.4105 40.1326L37.7313 7.92042Z" fill="#BEBEBE"/>
<line x1="1" y1="-1" x2="103.552" y2="-1" transform="matrix(0.977886 0.209137 -0.221618 0.975134 40.4834 49.8633)" stroke="#F9F9F9" stroke-width="2" stroke-linecap="round" stroke-dasharray="6 6"/>
<rect width="42.4742" height="4.23785" transform="matrix(0.977886 0.209137 -0.221618 0.975134 47.9968 16.8037)" fill="#E8E8E8"/>
<rect width="42.4742" height="4.23784" transform="matrix(0.977886 0.209137 -0.221618 0.975134 45.8838 26.1016)" fill="#E8E8E8"/>
<rect width="22.8707" height="4.23784" transform="matrix(0.977886 0.209137 -0.221618 0.975134 43.7705 35.3994)" fill="#E8E8E8"/>
<path fill-rule="evenodd" clip-rule="evenodd" d="M13 20.6902C13 19.0362 14.3409 17.6953 15.9949 17.6953H137.602C139.256 17.6953 140.597 19.0362 140.597 20.6902V53.6653C140.567 53.665 140.537 53.6648 140.508 53.6648C136.291 53.6648 132.874 56.9803 132.874 61.0703C132.874 65.1602 136.291 68.4758 140.508 68.4758C140.537 68.4758 140.567 68.4756 140.597 68.4753V89.8132C140.597 91.4672 139.256 92.8081 137.602 92.8081H15.9949C14.3409 92.8081 13 91.4672 13 89.8132V68.469C17.0634 68.3017 20.3047 65.0532 20.3047 61.0703C20.3047 57.0874 17.0634 53.8389 13 53.6716V20.6902Z" fill="#D9D9D9"/>
<line x1="25.9963" y1="60.0703" x2="128.691" y2="60.0703" stroke="#F9F9F9" stroke-width="2" stroke-linecap="round" stroke-dasharray="6 6"/>
<rect x="24.9963" y="27.2168" width="42.5324" height="4.2317" fill="#C2C2C2"/>
<rect x="24.9963" y="36.7378" width="42.5324" height="4.2317" fill="#C2C2C2"/>
<rect x="24.9963" y="46.2593" width="22.902" height="4.2317" fill="#C2C2C2"/>
</svg>
