<svg width="28" height="28" viewBox="0 0 28 28" fill="none" xmlns="http://www.w3.org/2000/svg">
<path d="M9.13892 8.45972H9.28892V8.30972V4.03867H19.4889V8.30972V8.45972H19.6389H24.7389V24.7387H4.03892V8.45972H9.13892ZM17.5389 8.45972H17.6889V8.30972V6.0992V5.9492H17.5389H11.2389H11.0889V6.0992V8.30972V8.45972H11.2389H17.5389ZM22.7889 22.8281H22.9389V22.6781V20.3887V17.1518V10.5203V10.3703H22.7889H19.6389H19.4889V10.5203V12.5808H17.6889V10.5203V10.3703H17.5389H11.2389H11.0889V10.5203V12.5808H9.28892V10.5203V10.3703H9.13892H5.98892H5.83892V10.5203V12.7308V22.6781V22.8281H5.98892H22.7889Z" fill="#787878" stroke="white" stroke-width="0.3"/>
</svg>
