<svg width="28" height="28" viewBox="0 0 28 28" fill="none" xmlns="http://www.w3.org/2000/svg">
<path d="M19.5885 8.41403C19.1661 7.99143 18.9187 7.42494 18.8959 6.82783C18.8731 6.23072 19.0766 5.64702 19.4656 5.19346C19.4978 5.15574 19.5145 5.10725 19.5124 5.05772C19.5104 5.00818 19.4897 4.96126 19.4544 4.92635L17.2135 2.68283C17.1764 2.6458 17.1262 2.625 17.0738 2.625C17.0214 2.625 16.9712 2.6458 16.9342 2.68283L13.3622 6.2548C13.2304 6.38656 13.1311 6.54721 13.0722 6.72402C13.0135 6.90124 12.9144 7.06235 12.7826 7.19457C12.6508 7.32679 12.4901 7.42648 12.313 7.48574C12.1361 7.5447 11.9753 7.64396 11.8433 7.77571L2.68283 16.9342C2.6458 16.9712 2.625 17.0214 2.625 17.0738C2.625 17.1262 2.6458 17.1764 2.68283 17.2135L4.92381 19.4544C4.95872 19.4897 5.00564 19.5104 5.05518 19.5124C5.10471 19.5145 5.1532 19.4978 5.19093 19.4656C5.64439 19.0762 6.22822 18.8724 6.82553 18.895C7.42284 18.9177 7.98956 19.1651 8.41223 19.5878C8.83489 20.0104 9.08232 20.5772 9.10497 21.1745C9.12762 21.7718 8.92383 22.3556 8.53438 22.8091C8.50221 22.8468 8.48548 22.8953 8.48755 22.9448C8.48962 22.9944 8.51034 23.0413 8.54555 23.0762L10.7865 25.3172C10.8236 25.3542 10.8738 25.375 10.9262 25.375C10.9786 25.375 11.0288 25.3542 11.0658 25.3172L20.2268 16.1567C20.3586 16.0247 20.4578 15.8639 20.5168 15.687C20.5755 15.5097 20.6746 15.3486 20.8064 15.2164C20.9382 15.0842 21.099 14.9845 21.276 14.9252C21.4528 14.8663 21.6134 14.7671 21.7452 14.6353L25.3172 11.0633C25.3542 11.0263 25.375 10.976 25.375 10.9237C25.375 10.8713 25.3542 10.821 25.3172 10.784L23.0762 8.54302C23.0413 8.5078 22.9944 8.48708 22.9448 8.48501C22.8953 8.48294 22.8468 8.49967 22.8091 8.53184C22.3561 8.92153 21.7728 9.12588 21.1757 9.10403C20.5786 9.08219 20.0118 8.83577 19.5885 8.41403Z" stroke="#0AC8C8" stroke-width="2" stroke-miterlimit="10"/>
<path d="M13.8751 8.62506L13.125 7.875M15.8749 10.6249L15.3747 10.1252M17.8748 12.6253L17.3751 12.1251M20.125 14.875L19.3749 14.1249" stroke="#0AC8C8" stroke-width="1.2" stroke-miterlimit="10" stroke-linecap="round"/>
</svg>
