<svg width="29" height="28" viewBox="0 0 29 28" fill="none" xmlns="http://www.w3.org/2000/svg">
<path d="M21.0625 5.75H24.4125V24.35H3.7125V5.75H7.0625H7.2125V5.6V3.65H9.24583V5.6V5.75H9.39583H18.7292H18.8792V5.6V3.65H20.9125V5.6V5.75H21.0625ZM5.74583 22.4V22.55H5.89583H22.2292H22.3792V22.4V11.9V11.75H22.2292H5.89583H5.74583V11.9V22.4ZM5.74583 9.8V9.95H5.89583H22.2292H22.3792V9.8V7.7V7.55H22.2292H5.89583H5.74583V7.7V9.8ZM8.37917 15.95V14.15H19.7458V15.95H8.37917ZM8.37917 20.15V18.35H16.2458V20.15H8.37917Z" fill="#787878" stroke="white" stroke-width="0.3"/>
</svg>
